<svg width="16" height="16" viewBox="0 0 48 48" fill="currentColor" xmlns="http://www.w3.org/2000/svg"><path fill-rule="evenodd" clip-rule="evenodd" d="M6 17V10C6 7.79086 7.79086 6 10 6H17C17.5523 6 18 6.44772 18 7V9C18 9.55228 17.5523 10 17 10H11C10.4477 10 10 10.4477 10 11V17C10 17.5523 9.55228 18 9 18H7C6.44772 18 6 17.5523 6 17ZM42 17V10C42 7.79086 40.2091 6 38 6H31C30.4477 6 30 6.44772 30 7V9C30 9.55228 30.4477 10 31 10H37C37.5523 10 38 10.4477 38 11V17C38 17.5523 38.4477 18 39 18H41C41.5523 18 42 17.5523 42 17ZM42 38V31C42 30.4477 41.5523 30 41 30H39C38.4477 30 38 30.4477 38 31V37C38 37.5523 37.5523 38 37 38H31C30.4477 38 30 38.4477 30 39V41C30 41.5523 30.4477 42 31 42H38C40.2091 42 42 40.2091 42 38ZM6 31V38C6 40.2091 7.79086 42 10 42H17C17.5523 42 18 41.5523 18 41V39C18 38.4477 17.5523 38 17 38H11C10.4477 38 10 37.5523 10 37V31C10 30.4477 9.55228 30 9 30H7C6.44772 30 6 30.4477 6 31ZM7 22C6.44772 22 6 22.4477 6 23V25C6 25.5523 6.44772 26 7 26H41C41.5523 26 42 25.5523 42 25V23C42 22.4477 41.5523 22 41 22H7Z"></path></svg>
