<svg width="16" height="16" viewBox="0 0 48 48" fill="currentColor" xmlns="http://www.w3.org/2000/svg"><path fill-rule="evenodd" clip-rule="evenodd" d="M13.0001 13C13.0001 9.68629 15.6864 7 19.0001 7C22.3139 7 25.0001 9.68629 25.0001 13C25.0001 16.3137 22.3139 19 19.0001 19C15.6864 19 13.0001 16.3137 13.0001 13ZM19.0001 3C13.4773 3 9.00015 7.47715 9.00015 13C9.00015 18.5228 13.4773 23 19.0001 23C24.523 23 29.0001 18.5228 29.0001 13C29.0001 7.47715 24.523 3 19.0001 3ZM5.19435 40.9681C6.70152 35.5144 10.0886 32.2352 13.9162 30.738C17.7125 29.2531 22.0358 29.4832 25.6064 31.2486C26.1015 31.4934 26.7131 31.338 26.9931 30.8619L28.0072 29.1381C28.2872 28.662 28.1294 28.0465 27.6384 27.7937C23.0156 25.4139 17.4034 25.0789 12.4591 27.0129C7.37426 29.0018 3.09339 33.3505 1.2883 40.0887C1.14539 40.6222 1.48573 41.1592 2.02454 41.2805L3.97575 41.7195C4.51457 41.8408 5.04724 41.5004 5.19435 40.9681ZM37.0002 26C37.5525 26 38.0002 26.4477 38.0002 27V34H45.0002C45.5525 34 46.0002 34.4477 46.0002 35V37C46.0002 37.5523 45.5525 38 45.0002 38H38.0002V45C38.0002 45.5523 37.5525 46 37.0002 46H35.0002C34.448 46 34.0002 45.5523 34.0002 45V38H27.0002C26.448 38 26.0002 37.5523 26.0002 37V35C26.0002 34.4477 26.448 34 27.0002 34H34.0002V27C34.0002 26.4477 34.448 26 35.0002 26H37.0002Z"></path></svg>
